# Blender v2.93.5 OBJ File: 'stadium1.blend'
# www.blender.org
mtllib stadium1.mtl
o Cube.001
v 0.127893 1.200923 0.702356
v -0.895406 0.200171 0.702356
v 0.300363 1.200923 0.702356
v -0.895406 0.200171 -1.287269
v 0.300363 1.200923 -1.287269
v 0.300363 0.200171 0.702356
v 0.127893 1.200923 -1.287269
v 0.300363 0.200171 -1.287269
v -1.102477 0.200171 -0.624061
v -1.146018 0.200171 -0.292457
v -1.102477 0.200171 0.039148
v -1.018954 0.200171 0.370752
v 0.127893 -0.020792 -1.287269
v 0.127893 -0.020792 0.702356
v 0.127893 0.200171 0.702356
v 0.127893 0.200171 -1.287269
v 0.300363 -0.020792 0.702356
v 0.300363 -0.020792 -1.287269
v -0.895406 -0.020792 -1.287269
v -0.895406 -0.020792 0.702356
v -1.018954 0.200171 -0.955665
v 0.127893 1.280696 0.370752
v 0.127893 1.338838 0.039148
v 0.127893 1.365719 -0.292457
v 0.127893 1.338838 -0.624061
v 0.127893 1.280696 -0.955665
v 0.300363 0.200171 -0.955665
v 0.300363 0.200171 -0.624061
v 0.300363 0.200171 -0.292457
v 0.300363 0.200171 0.039148
v 0.300363 0.200171 0.370752
v 0.300363 1.280696 -0.955665
v 0.300363 1.338838 -0.624061
v 0.300363 1.365719 -0.292457
v 0.300363 1.338838 0.039148
v 0.300363 1.280696 0.370752
v 0.127893 0.200171 0.370752
v 0.127893 0.200171 0.039148
v 0.127893 0.200171 -0.292457
v 0.127893 0.200171 -0.624061
v 0.127893 0.200171 -0.955665
v 0.127893 -0.020792 -0.955665
v 0.127893 -0.020792 -0.624061
v 0.127893 -0.020792 -0.292457
v 0.127893 -0.020792 0.039148
v 0.127893 -0.020792 0.370752
v 0.300363 -0.020792 -0.955665
v 0.300363 -0.020792 -0.624061
v 0.300363 -0.020792 -0.292457
v 0.300363 -0.020792 0.039148
v 0.300363 -0.020792 0.370752
v -1.018954 -0.020792 0.370752
v -1.102477 -0.020792 0.039148
v -1.146018 -0.020792 -0.292457
v -1.102477 -0.020792 -0.624061
v -1.018954 -0.020792 -0.955665
v -0.660111 -0.540686 -0.955665
v -0.660111 -0.540686 -0.624061
v -0.660111 -0.540686 0.039148
v -0.660111 -0.540686 0.370752
v -0.487641 -0.540686 -0.955665
v -0.487641 -0.540686 -0.624061
v -0.487641 -0.540686 0.039148
v -0.487641 -0.540686 0.370752
vt 0.656734 0.541667
vt 0.656734 0.541667
vt 0.656734 0.500000
vt 0.656734 0.500000
vt 0.625000 0.750000
vt 0.625000 0.750000
vt 0.656734 0.750000
vt 0.656734 0.750000
vt 0.625000 0.708333
vt 0.625000 0.708333
vt 0.656734 0.708333
vt 0.656734 0.625000
vt 0.656734 0.666667
vt 0.875000 0.666667
vt 0.875000 0.625000
vt 0.656734 0.708333
vt 0.875000 0.708333
vt 0.875000 0.750000
vt 0.656734 0.583333
vt 0.875000 0.583333
vt 0.656734 0.541667
vt 0.875000 0.541667
vt 0.656734 0.500000
vt 0.875000 0.500000
vt 0.625000 0.500000
vt 0.625000 0.500000
vt 0.875000 0.750000
vt 0.656734 0.750000
vt 0.625000 0.500000
vt 0.625000 0.708333
vt 0.625000 0.750000
vt 0.656734 0.708333
vt 0.875000 0.708333
vt 0.625000 0.541667
vt 0.625000 0.541667
vt 0.875000 0.500000
vt 0.625000 0.666667
vt 0.625000 0.666667
vt 0.625000 0.625000
vt 0.625000 0.625000
vt 0.625000 0.583333
vt 0.625000 0.583333
vt 0.875000 0.541667
vt 0.875000 0.583333
vt 0.875000 0.625000
vt 0.875000 0.666667
vt 0.656734 0.583333
vt 0.625000 0.583333
vt 0.625000 0.666667
vt 0.656734 0.666667
vt 0.656734 0.583333
vt 0.656734 0.625000
vt 0.656734 0.666667
vt 0.625000 0.541667
vt 0.656734 0.583333
vt 0.625000 0.583333
vt 0.656734 0.625000
vt 0.625000 0.625000
vt 0.656734 0.666667
vt 0.625000 0.666667
vt 0.625000 0.541667
vt 0.656734 0.541667
vt 0.656734 0.708333
vt 0.625000 0.708333
vn -1.0000 0.0000 0.0000
vn 0.0000 0.0000 1.0000
vn 1.0000 0.0000 0.0000
vn 0.0000 0.9723 0.2339
vn 0.0000 -1.0000 0.0000
vn 0.0000 1.0000 0.0000
vn 0.0000 0.0000 -1.0000
vn -0.9371 0.0000 0.3491
vn -0.9371 0.0000 -0.3491
vn -0.9697 0.0000 -0.2442
vn -0.9915 0.0000 -0.1302
vn -0.9915 0.0000 0.1302
vn -0.9697 0.0000 0.2442
vn 0.0000 0.9723 -0.2339
vn 0.0000 0.9850 -0.1727
vn 0.0000 0.9967 -0.0808
vn -0.0000 0.9967 0.0808
vn -0.0000 0.9850 0.1727
vn 0.5507 -0.8347 0.0000
vn -0.5507 0.8347 0.0000
g Cube.001_Cube.001_None
usemtl None
s off
f 41/1/1 26/2/1 7/3/1 16/4/1
f 6/5/2 3/6/2 1/7/2 15/8/2
f 31/9/3 36/10/3 3/6/3 6/5/3
f 36/10/4 22/11/4 1/7/4 3/6/4
f 44/12/5 45/13/5 53/14/5 54/15/5
f 37/16/6 12/17/6 2/18/6 15/8/6
f 43/19/5 44/12/5 54/15/5 55/20/5
f 42/21/5 43/19/5 55/20/5 56/22/5
f 13/23/5 42/21/5 56/22/5 19/24/5
f 16/4/7 7/3/7 5/25/7 8/26/7
f 2/18/2 20/27/2 14/28/2 15/8/2
f 8/26/7 18/29/7 13/23/7 16/4/7
f 51/30/5 17/31/5 14/28/5 46/32/5
f 15/8/2 14/28/2 17/31/2 6/5/2
f 12/17/8 52/33/8 20/27/8 2/18/8
f 27/34/3 47/35/3 18/29/3 8/26/3
f 16/4/7 13/23/7 19/24/7 4/36/7
f 46/32/5 14/28/5 20/27/5 52/33/5
f 45/13/5 46/32/5 52/33/5 53/14/5
f 6/5/3 17/31/3 51/30/3 31/9/3
f 31/9/3 51/30/3 50/37/3 30/38/3
f 30/38/3 50/37/3 49/39/3 29/40/3
f 29/40/3 49/39/3 48/41/3 28/42/3
f 28/42/3 48/41/3 47/35/3 27/34/3
f 4/36/9 19/24/9 56/22/9 21/43/9
f 21/43/10 56/22/10 55/20/10 9/44/10
f 9/44/11 55/20/11 54/15/11 10/45/11
f 10/45/12 54/15/12 53/14/12 11/46/12
f 11/46/13 53/14/13 52/33/13 12/17/13
f 18/29/5 47/35/5 42/21/5 13/23/5
f 43/19/2 58/47/2 62/48/2 48/41/2
f 48/41/5 49/39/5 44/12/5 43/19/5
f 49/39/5 50/37/5 45/13/5 44/12/5
f 50/37/7 63/49/7 59/50/7 45/13/7
f 16/4/6 4/36/6 21/43/6 41/1/6
f 41/1/6 21/43/6 9/44/6 40/51/6
f 40/51/6 9/44/6 10/45/6 39/52/6
f 39/52/6 10/45/6 11/46/6 38/53/6
f 38/53/6 11/46/6 12/17/6 37/16/6
f 5/25/14 7/3/14 26/2/14 32/54/14
f 32/54/15 26/2/15 25/55/15 33/56/15
f 33/56/16 25/55/16 24/57/16 34/58/16
f 34/58/17 24/57/17 23/59/17 35/60/17
f 35/60/18 23/59/18 22/11/18 36/10/18
f 8/26/3 5/25/3 32/54/3 27/34/3
f 27/34/3 32/54/3 33/56/3 28/42/3
f 28/42/3 33/56/3 34/58/3 29/40/3
f 29/40/3 34/58/3 35/60/3 30/38/3
f 30/38/3 35/60/3 36/10/3 31/9/3
f 15/8/1 1/7/1 22/11/1 37/16/1
f 37/16/1 22/11/1 23/59/1 38/53/1
f 38/53/1 23/59/1 24/57/1 39/52/1
f 39/52/1 24/57/1 25/55/1 40/51/1
f 40/51/1 25/55/1 26/2/1 41/1/1
f 61/61/6 57/62/6 58/47/6 62/48/6
f 63/49/6 59/50/6 60/63/6 64/64/6
f 51/30/19 64/64/19 63/49/19 50/37/19
f 46/32/2 60/63/2 64/64/2 51/30/2
f 42/21/20 57/62/20 58/47/20 43/19/20
f 47/35/7 61/61/7 57/62/7 42/21/7
f 48/41/19 62/48/19 61/61/19 47/35/19
f 45/13/20 59/50/20 60/63/20 46/32/20
